<?xml version="1.0" standalone="no"?>
<!DOCTYPE svg PUBLIC "-//W3C//DTD SVG 20010904//EN"
 "http://www.w3.org/TR/2001/REC-SVG-20010904/DTD/svg10.dtd">
<svg version="1.0" xmlns="http://www.w3.org/2000/svg"
 width="2000.000000pt" height="2000.000000pt" viewBox="0 0 2000.000000 2000.000000"
 preserveAspectRatio="xMidYMid meet">
<metadata>
Created by potrace 1.14, written by Peter Selinger 2001-2017
</metadata>
<g transform="translate(0.000000,2000.000000) scale(0.100000,-0.100000)"
fill="#000000" stroke="none">
<path d="M0 10000 l0 -10000 10000 0 10000 0 0 4440 0 4440 -80 0 c-64 0 -80
-3 -80 -15 0 -11 -11 -15 -40 -15 -36 0 -40 -2 -40 -25 l0 -25 -120 0 c-100 0
-120 -2 -120 -15 0 -11 -11 -15 -40 -15 -36 0 -40 -2 -40 -25 l0 -25 -120 0
c-100 0 -120 -2 -120 -15 0 -12 -16 -15 -80 -15 -79 0 -80 0 -80 -25 l0 -25
-120 0 c-100 0 -120 -2 -120 -15 0 -12 -13 -15 -59 -15 -32 0 -86 -3 -120 -6
-50 -6 -61 -10 -61 -25 0 -18 -12 -19 -200 -19 -171 0 -200 -2 -200 -15 0 -12
-18 -15 -99 -15 -54 0 -126 -3 -160 -6 -50 -6 -61 -10 -61 -25 0 -18 -24 -19
-680 -19 -656 0 -680 1 -680 19 0 15 -11 19 -61 25 -34 3 -106 6 -160 6 -81 0
-99 3 -99 15 0 13 -29 15 -200 15 l-200 0 0 25 c0 25 -1 25 -80 25 -64 0 -80
3 -80 15 0 13 -24 15 -160 15 l-160 0 0 25 c0 25 -1 25 -80 25 -64 0 -80 3
-80 15 0 13 -20 15 -120 15 l-120 0 0 25 c0 23 -4 25 -40 25 -29 0 -40 4 -40
15 0 12 -16 15 -80 15 -72 0 -80 2 -80 19 0 16 -11 20 -80 26 -58 5 -80 11
-80 21 0 11 -18 14 -80 14 -79 0 -80 0 -80 25 0 23 -4 25 -40 25 -29 0 -40 4
-40 15 0 12 -16 15 -80 15 -79 0 -80 0 -80 25 0 23 -4 25 -40 25 -29 0 -40 4
-40 15 0 12 -16 15 -80 15 -79 0 -80 0 -80 25 0 23 -4 25 -40 25 -29 0 -40 4
-40 15 0 12 -16 15 -80 15 l-80 0 0 40 0 40 -80 0 c-79 0 -80 0 -80 25 0 23
-4 25 -40 25 -29 0 -40 4 -40 15 0 12 -16 15 -80 15 l-80 0 0 40 0 40 -80 0
-80 0 0 40 0 40 -80 0 -80 0 0 40 0 40 -80 0 -80 0 0 40 0 40 -80 0 -80 0 0
40 0 40 -80 0 -80 0 0 40 0 40 -80 0 c-47 0 -80 -4 -80 -10 0 -5 -18 -10 -40
-10 -22 0 -40 5 -40 10 0 6 18 10 40 10 l40 0 0 40 0 40 -45 0 c-41 0 -45 2
-45 25 0 19 -5 25 -21 25 -17 0 -20 4 -15 23 3 12 6 37 6 55 0 25 4 32 20 32
18 0 20 7 20 55 l0 55 40 0 c33 0 40 4 40 19 0 21 19 31 57 31 25 0 25 1 -18
49 -37 41 -50 49 -81 50 l-38 1 0 55 0 55 -39 0 c-22 0 -41 -3 -44 -7 -2 -5
-2 -2 0 5 1 8 3 43 3 78 l0 64 40 0 c35 0 40 3 40 24 0 21 5 24 60 29 33 4 87
4 120 0 57 -6 60 -5 60 16 0 20 5 22 50 20 46 -2 82 12 68 26 -3 4 -31 9 -62
12 -46 5 -56 9 -56 24 0 17 9 19 80 19 72 0 80 2 80 19 0 20 23 28 112 38 48
5 117 52 90 61 -21 7 -13 22 13 22 18 0 25 -5 25 -20 0 -18 3 -19 22 -9 l21
11 -22 17 -22 17 26 12 c14 7 32 12 40 12 8 0 15 5 15 10 0 6 6 10 13 10 18 0
67 24 67 33 0 4 9 7 20 7 11 0 20 -7 20 -15 0 -9 -9 -15 -22 -15 -12 0 -19 -3
-16 -6 3 -3 22 -2 42 1 38 8 51 35 16 35 -13 0 -20 7 -20 20 0 11 6 20 13 20
15 0 101 42 105 53 2 4 21 7 43 7 34 0 39 3 39 23 0 19 8 27 40 37 22 7 40 17
40 22 0 4 11 8 24 8 13 0 44 11 67 25 24 14 55 25 69 25 34 0 52 14 48 34 -2
13 10 23 47 37 28 10 60 19 72 19 12 0 28 6 35 13 23 21 95 57 116 57 11 0 27
7 36 15 8 8 22 15 31 15 9 0 14 4 11 9 -5 8 57 39 112 56 12 3 22 9 22 13 0 4
25 18 55 32 56 26 76 60 34 60 -11 0 -17 4 -14 10 4 6 14 10 23 9 21 -4 92 22
92 33 0 4 5 8 11 8 10 0 49 29 103 77 18 15 18 17 2 23 -16 5 -16 7 3 24 12
11 27 16 37 12 9 -3 32 -1 51 6 25 9 33 17 30 30 -3 10 -1 15 4 12 9 -5 158
144 159 159 0 5 18 26 40 47 22 21 40 43 40 49 0 6 4 11 9 11 5 0 12 9 16 20
3 11 18 32 33 48 77 81 133 154 128 167 -3 8 15 37 44 69 28 29 50 63 50 73 0
31 21 85 42 108 27 29 67 87 74 108 4 9 11 17 16 17 6 0 5 7 -2 15 -11 13 -9
20 9 38 11 13 21 28 21 34 0 5 9 18 20 28 11 10 20 24 20 32 0 7 5 13 10 13 6
0 10 8 11 18 0 9 8 42 18 72 10 30 15 56 10 58 -5 2 -2 10 6 19 8 8 15 26 15
39 0 14 4 23 9 20 13 -8 34 49 27 72 -5 14 -1 21 14 25 15 4 20 13 20 41 0 20
5 36 10 36 6 0 10 16 10 36 0 19 6 42 14 49 8 8 19 47 26 87 13 84 25 127 48
181 13 32 14 40 2 47 -11 7 -12 14 -2 35 7 15 15 67 19 116 3 49 10 89 15 89
5 0 4 10 -3 21 -6 12 -13 74 -15 138 -3 120 -6 146 -19 194 -4 15 -11 51 -16
80 l-8 52 3 -65 c3 -42 1 -56 -4 -40 -4 14 -9 50 -10 80 -1 31 -4 48 -8 38 -4
-10 -7 105 -7 255 0 292 -9 382 -61 592 -31 125 -106 355 -116 355 -13 0 -233
-374 -256 -435 -12 -33 -29 -79 -38 -102 -15 -42 -127 -167 -138 -156 -3 4 -6
-1 -6 -10 0 -10 -7 -17 -15 -17 -8 0 -15 -4 -15 -10 0 -5 4 -10 8 -10 5 0 17
-7 28 -16 18 -15 18 -15 -3 -5 -30 15 -33 14 -33 -8 0 -56 40 -33 171 98 120
121 209 249 269 390 l27 64 17 -49 c70 -214 106 -550 87 -799 -26 -328 -96
-592 -226 -860 -71 -145 -233 -393 -280 -427 -7 -5 -7 -8 0 -8 6 0 2 -5 -8
-11 -9 -6 -15 -14 -12 -20 4 -5 0 -9 -8 -9 -8 0 -20 -7 -27 -16 -8 -8 -9 -14
-3 -12 6 2 11 -1 11 -7 1 -5 -7 -9 -16 -7 -14 2 -14 1 -3 -7 9 -5 12 -18 8
-32 -6 -23 -5 -23 8 -5 8 11 15 15 15 10 0 -5 -28 -37 -62 -70 -286 -276 -671
-451 -1088 -493 -158 -17 -242 -15 -493 12 -13 2 -26 -17 -51 -73 -101 -226
-238 -402 -444 -573 l-82 -68 0 134 c0 349 -117 650 -358 923 -92 104 -217
212 -447 384 -214 159 -598 420 -620 420 -3 0 -4 -1664 -3 -3697 l3 -3698 26
-75 c73 -214 219 -330 567 -450 67 -24 122 -45 122 -49 0 -3 -73 -35 -163 -71
-278 -111 -557 -261 -835 -447 -497 -334 -1040 -826 -1421 -1287 l-106 -128
-5 5233 c-5 4940 -6 5237 -22 5285 -52 151 -183 235 -450 288 -265 53 -368 55
-633 10 -567 -95 -1016 -381 -1234 -785 -197 -365 -183 -856 35 -1184 18 -27
98 -126 177 -220 80 -93 144 -172 142 -173 -7 -7 -441 241 -541 309 -526 358
-843 887 -848 1414 0 66 3 152 7 190 l8 70 -83 18 c-239 54 -491 186 -704 370
-65 57 -179 185 -171 194 3 2 33 -1 68 -7 133 -21 428 -6 612 31 256 52 493
158 942 423 105 62 233 138 286 169 96 56 358 190 434 222 304 127 654 218
1005 262 202 25 673 24 885 -1 256 -30 495 -75 749 -141 116 -31 89 -41 272
111 103 86 444 384 444 388 0 1 -22 1 -50 1 -27 0 -50 -3 -50 -6 0 -4 -7 -10
-16 -13 -15 -6 -15 -4 -3 11 12 15 12 16 -3 10 -10 -3 -18 -2 -18 4 0 7 -31 8
-92 4 -87 -6 -148 -21 -148 -36 0 -4 -36 -10 -80 -14 -80 -7 -80 -7 -80 -36 0
-19 -5 -29 -15 -29 -8 0 -15 7 -15 15 0 13 -32 21 -63 16 -4 -1 -26 -2 -50 -3
-23 -1 -48 -7 -55 -15 -7 -7 -31 -16 -53 -19 -21 -4 -39 -10 -39 -15 0 -13
-28 -11 -32 3 -3 9 -26 9 -101 0 -128 -16 -162 -15 -178 4 -11 14 -27 15 -106
10 -63 -5 -93 -4 -93 3 0 6 -18 11 -40 11 -22 0 -40 5 -40 10 0 6 -9 10 -19
10 -11 0 -23 5 -26 10 -9 14 -125 13 -125 -1 0 -7 18 -10 49 -7 27 1 47 0 44
-4 -5 -10 -59 -10 -100 -2 -24 5 -33 14 -43 45 l-13 39 -84 0 c-49 0 -83 4
-83 10 0 6 -16 10 -35 10 -19 0 -35 -4 -35 -10 0 -5 16 -10 35 -10 19 0 35 -4
35 -10 0 -5 37 -11 83 -13 l82 -3 -82 -2 c-47 -1 -83 -6 -83 -12 0 -5 -18 -10
-40 -10 -54 0 -51 20 3 22 l42 1 -45 6 c-38 5 -45 9 -42 26 4 28 -45 45 -130
45 -36 0 -93 3 -127 6 -58 7 -61 8 -61 35 0 26 -2 27 -57 31 -32 2 -66 8 -75
12 -14 6 -18 3 -19 -15 -1 -19 -2 -20 -6 -5 -4 15 -11 17 -41 12 -20 -3 -38
-10 -40 -16 -2 -5 -21 -10 -43 -10 -37 0 -39 2 -39 30 0 28 -2 30 -40 30 -36
0 -40 3 -40 25 0 23 -4 25 -40 25 -36 0 -40 -2 -40 -25 0 -23 -2 -24 -20 -13
-16 10 -24 10 -40 0 -19 -11 -20 -10 -20 23 0 34 1 35 43 36 23 0 36 3 30 6
-8 2 -13 22 -13 44 0 34 -3 39 -22 39 -22 1 -23 1 -4 15 27 21 8 39 -40 37
-20 -1 -45 3 -55 9 -15 7 -19 6 -19 -5 0 -10 -21 -16 -80 -21 -58 -5 -80 -11
-80 -21 0 -10 -12 -14 -40 -14 l-40 0 0 80 c0 64 -3 80 -15 80 -12 0 -15 16
-15 80 0 79 0 80 -25 80 l-25 0 0 200 c0 171 -2 200 -15 200 -12 0 -15 18 -15
99 0 54 -3 126 -6 160 -6 50 -10 61 -25 61 -18 0 -19 24 -19 680 0 656 1 680
19 680 15 0 19 11 25 61 3 34 6 106 6 160 0 81 3 99 15 99 13 0 15 29 15 200
0 188 1 200 19 200 15 0 19 11 25 61 3 34 6 88 6 120 0 46 3 59 15 59 11 0 15
11 15 40 l0 40 -40 0 -40 0 0 -40 c0 -22 -4 -40 -10 -40 -5 0 -10 18 -10 40
l0 40 -3710 0 -3710 0 0 -10000z m7355 9362 c-13 -14 -16 13 -8 85 l8 78 3
-79 c2 -43 0 -81 -3 -84z m4 -2244 c-2 -78 -2 -80 -9 -33 -12 72 -11 115 0
115 6 0 9 -33 9 -82z m81 -518 c0 -22 -4 -40 -10 -40 -5 0 -10 18 -10 40 0 22
5 40 10 40 6 0 10 -18 10 -40z m350 -165 c10 -13 9 -15 -9 -15 -11 0 -21 -4
-21 -9 0 -5 -20 -11 -43 -12 -38 -4 -43 -2 -39 14 3 12 15 17 43 17 22 0 39 5
39 10 0 15 16 12 30 -5z m833 -192 c-13 -2 -33 -2 -45 0 -13 2 -3 4 22 4 25 0
35 -2 23 -4z m1965 -31 c-7 -8 -14 -9 -17 -3 -5 7 -16 5 -34 -4 -15 -8 -25
-10 -21 -4 8 13 38 25 64 25 15 0 16 -3 8 -14z m-1805 -39 c-13 -2 -33 -2 -45
0 -13 2 -3 4 22 4 25 0 35 -2 23 -4z m5912 -1413 c3 -5 1 -10 -4 -10 -6 0 -11
5 -11 10 0 6 2 10 4 10 3 0 8 -4 11 -10z m-215 -2905 c0 -8 -7 -15 -16 -15
-14 0 -14 3 -4 15 7 8 14 15 16 15 2 0 4 -7 4 -15z m-240 -190 c0 -8 -7 -15
-16 -15 -14 0 -14 3 -4 15 7 8 14 15 16 15 2 0 4 -7 4 -15z m-1200 -680 c0 -8
-7 -15 -15 -15 -26 0 -18 20 13 29 1 1 2 -6 2 -14z m-306 -157 c8 -6 8 -8 -1
-8 -7 0 -13 -7 -13 -15 0 -11 -11 -15 -40 -15 -22 0 -40 3 -40 7 0 4 17 24 38
46 35 37 37 37 41 15 1 -13 8 -26 15 -30z m-271 -105 c-13 -2 -33 -2 -45 0
-13 2 -3 4 22 4 25 0 35 -2 23 -4z m-223 -73 c0 -5 -18 -10 -40 -10 -22 0 -40
5 -40 10 0 6 18 10 40 10 22 0 40 -4 40 -10z m-240 -170 c0 -5 -9 -10 -21 -10
-11 0 -17 5 -14 10 3 6 13 10 21 10 8 0 14 -4 14 -10z m-7 -77 c-7 -2 -19 -2
-25 0 -7 3 -2 5 12 5 14 0 19 -2 13 -5z m57 -123 c0 -36 -2 -40 -25 -40 -22 0
-25 4 -25 40 0 36 3 40 25 40 23 0 25 -4 25 -40z m-70 -80 c0 -29 -4 -40 -15
-40 -11 0 -15 11 -15 40 0 29 4 40 15 40 11 0 15 -11 15 -40z m1380 -1010 c0
-5 -18 -10 -40 -10 -22 0 -40 5 -40 10 0 6 18 10 40 10 22 0 40 -4 40 -10z
m400 -160 c0 -5 -18 -10 -40 -10 -22 0 -40 5 -40 10 0 6 18 10 40 10 22 0 40
-4 40 -10z m720 -240 c0 -5 -18 -10 -40 -10 -22 0 -40 5 -40 10 0 6 18 10 40
10 22 0 40 -4 40 -10z m640 -160 c0 -5 -18 -10 -40 -10 -22 0 -40 5 -40 10 0
6 18 10 40 10 22 0 40 -4 40 -10z m400 -80 c0 -5 -18 -10 -40 -10 -22 0 -40 5
-40 10 0 6 18 10 40 10 22 0 40 -4 40 -10z m3360 0 c0 -5 -18 -10 -40 -10 -22
0 -40 5 -40 10 0 6 18 10 40 10 22 0 40 -4 40 -10z m-2800 -80 c0 -11 -43 -12
-115 0 -47 7 -45 7 33 9 49 0 82 -3 82 -9z m2275 0 c-72 -12 -115 -11 -115 0
0 6 33 9 83 9 77 -2 79 -2 32 -9z"/>
<path d="M7693 19480 c0 -25 2 -35 4 -22 2 12 2 32 0 45 -2 12 -4 2 -4 -23z"/>
<path d="M7614 18280 c0 -69 1 -97 3 -62 2 34 2 90 0 125 -2 34 -3 6 -3 -63z"/>
<path d="M7693 17080 c0 -25 2 -35 4 -22 2 12 2 32 0 45 -2 12 -4 2 -4 -23z"/>
<path d="M10646 16278 c3 -5 10 -6 15 -3 13 9 11 12 -6 12 -8 0 -12 -4 -9 -9z"/>
<path d="M10610 16259 c0 -5 5 -7 10 -4 6 3 10 8 10 11 0 2 -4 4 -10 4 -5 0
-10 -5 -10 -11z"/>
<path d="M11057 16003 c-4 -21 -7 -180 -7 -354 l0 -316 203 -88 c111 -49 267
-119 345 -157 79 -37 148 -66 152 -63 5 3 10 1 12 -4 1 -5 10 -11 18 -13 8 -2
21 -9 28 -16 14 -13 36 -7 27 8 -3 5 5 16 17 25 l23 16 -22 -4 c-12 -2 -26 -6
-29 -10 -11 -11 -26 -8 -19 3 7 12 -110 133 -132 136 -8 2 -22 13 -31 26 -8
13 -43 50 -76 83 -73 72 -120 131 -131 164 -4 13 -18 34 -30 46 -13 11 -40 54
-60 94 -20 40 -44 81 -53 90 -28 29 -52 80 -46 96 4 8 1 15 -5 15 -7 0 -20 19
-30 43 -10 23 -26 48 -35 56 -9 7 -16 20 -16 27 0 8 -3 14 -8 14 -4 0 -13 14
-20 30 -8 17 -18 27 -23 24 -6 -3 -9 6 -7 23 2 20 -1 27 -11 25 -8 -2 -17 2
-21 8 -4 6 -10 -6 -13 -27z"/>
<path d="M8325 15373 c-730 -66 -1388 -399 -1681 -851 -97 -150 -186 -377
-221 -564 -25 -134 -25 -437 1 -573 56 -299 206 -596 412 -812 l74 -78 -49 77
c-256 403 -236 967 51 1385 72 106 253 285 363 359 238 162 530 277 835 329
148 26 515 177 805 333 213 114 495 286 495 302 0 7 -142 38 -278 61 -148 25
-351 39 -552 37 -118 -1 -233 -3 -255 -5z"/>
<path d="M11850 14990 c-8 -5 -12 -11 -10 -13 8 -7 144 -69 155 -71 6 -1 21
-8 33 -15 13 -7 36 -15 50 -17 25 -4 26 -3 7 8 -20 12 -25 14 -46 17 -5 0 -7
6 -4 11 4 6 -9 10 -31 10 -36 0 -37 1 -18 16 10 8 14 13 9 10 -6 -2 -17 -1
-25 4 -8 5 -22 4 -34 -2 -18 -10 -19 -9 -8 4 10 13 9 18 -5 29 -11 9 -14 10
-9 2 10 -18 -9 -16 -24 2 -14 17 -20 18 -40 5z m115 -50 c3 -5 1 -10 -4 -10
-6 0 -11 5 -11 10 0 6 2 10 4 10 3 0 8 -4 11 -10z"/>
<path d="M12038 14933 c7 -3 16 -2 19 1 4 3 -2 6 -13 5 -11 0 -14 -3 -6 -6z"/>
<path d="M12105 14861 c-3 -9 -3 -12 1 -8 4 4 26 -4 48 -17 23 -13 50 -26 61
-28 11 -1 26 -9 34 -16 7 -7 20 -11 27 -8 7 3 16 1 19 -4 4 -6 17 -10 31 -10
16 0 23 -4 18 -11 -4 -8 0 -8 15 0 25 14 28 23 4 14 -11 -4 -14 -3 -9 6 6 8 1
10 -18 5 -17 -4 -34 1 -55 15 -16 12 -34 21 -41 21 -6 0 -8 5 -4 11 4 8 -1 7
-17 -1 l-24 -11 24 20 c25 23 21 27 -10 10 -12 -6 -28 -7 -37 -3 -9 4 -20 7
-24 6 -4 -1 -5 4 -2 11 3 8 -3 13 -16 13 -11 0 -22 -7 -25 -15z"/>
<path d="M12167 14864 c3 -7 9 -14 14 -14 14 0 10 17 -5 23 -10 4 -13 1 -9 -9z"/>
<path d="M5837 14779 c-48 -16 -143 -40 -210 -54 -129 -26 -409 -50 -489 -43
-26 3 -48 4 -48 3 0 -8 196 -160 258 -200 91 -58 254 -136 346 -166 38 -12
117 -31 176 -43 83 -16 106 -24 104 -36 -21 -109 -27 -166 -27 -280 -1 -156
13 -253 55 -395 53 -180 229 -505 265 -490 13 4 13 3 4 -9 -9 -11 -7 -18 13
-34 14 -10 23 -21 21 -24 -3 -2 10 -18 27 -34 18 -16 27 -22 20 -13 -7 9 -11
23 -9 30 2 8 2 11 0 7 -3 -5 -9 -8 -14 -8 -5 0 -8 3 -8 8 5 27 -2 52 -13 46
-7 -4 -8 -3 -4 5 4 6 0 18 -8 27 -16 16 -22 39 -8 30 4 -2 14 0 22 5 12 8 11
9 -4 7 -21 -3 -20 -6 -50 137 -10 44 -24 102 -31 128 -8 27 -11 55 -9 62 3 7
-1 27 -10 43 -8 16 -13 32 -11 34 3 3 -2 27 -11 54 -9 27 -20 74 -24 104 -4
30 -15 84 -25 120 -9 36 -20 85 -26 110 -20 99 -31 156 -34 180 -6 43 -21 106
-29 119 -4 6 -10 28 -12 47 -2 20 -8 44 -12 53 -13 27 2 101 20 101 5 0 7 -10
3 -22 -5 -20 -5 -21 5 -5 8 13 8 22 1 31 -8 9 1 32 34 87 25 41 57 89 72 108
20 25 23 33 11 28 -9 -3 -52 -13 -95 -22 -43 -8 -89 -18 -103 -20 -18 -4 -21
-3 -11 4 19 12 23 41 6 41 -7 0 -17 25 -25 63 -7 34 -17 67 -21 73 -5 6 -3 16
3 22 15 15 21 16 -85 -19z"/>
<path d="M14625 14787 c-10 -7 -25 -17 -32 -23 -6 -7 -28 -15 -47 -18 -24 -5
-41 -16 -55 -39 -11 -18 -21 -27 -21 -21 0 5 5 15 10 20 7 7 6 11 -4 11 -8 0
-13 -4 -10 -8 2 -4 0 -10 -6 -14 -5 -3 -10 -1 -10 6 0 9 -3 9 -14 0 -8 -7 -32
-14 -53 -17 -21 -3 -62 -18 -91 -35 -30 -17 -51 -25 -47 -20 9 15 -7 13 -29
-4 -11 -8 -31 -15 -45 -15 -30 0 -91 -21 -91 -32 0 -4 -18 -12 -40 -18 -22 -6
-40 -16 -40 -21 0 -7 -13 -9 -36 -5 -19 4 -41 3 -47 -2 -7 -5 -50 -15 -97 -22
-85 -13 -132 -28 -100 -31 8 -1 2 -5 -15 -10 -42 -11 167 -1 222 11 24 6 60
13 80 16 56 9 226 61 285 88 29 13 67 29 85 37 17 7 29 17 26 23 -3 5 -1 6 4
3 10 -7 155 70 161 85 2 5 8 8 12 8 8 0 76 43 89 56 9 9 -25 2 -44 -9z m-685
-267 c0 -5 -4 -10 -10 -10 -5 0 -10 5 -10 10 0 6 5 10 10 10 6 0 10 -4 10 -10z"/>
<path d="M14636 14752 c-3 -5 1 -9 9 -9 8 0 12 4 9 9 -3 4 -7 8 -9 8 -2 0 -6
-4 -9 -8z"/>
<path d="M8780 14724 c-19 -2 -83 -9 -142 -15 -167 -17 -176 -23 -57 -37 208
-26 370 -67 482 -123 153 -76 224 -188 247 -394 5 -50 10 -363 11 -710 0 -341
4 -629 9 -640 l9 -20 1 20 c2 17 3 16 10 -5 8 -25 8 -25 9 5 l2 30 25 -28 c13
-16 39 -33 57 -38 18 -5 56 -27 85 -49 29 -22 61 -40 70 -40 10 0 29 -12 43
-26 13 -14 50 -39 81 -55 31 -16 69 -40 84 -54 15 -14 33 -25 40 -25 8 0 37
-18 66 -40 29 -22 70 -45 90 -50 22 -6 39 -18 43 -30 6 -18 10 -21 33 -20 4 1
10 -14 13 -32 15 -88 20 199 17 917 -4 860 -1 819 -68 961 -119 248 -391 416
-780 479 -92 15 -408 28 -480 19z"/>
<path d="M14643 14723 c4 -3 1 -13 -6 -22 -11 -14 -10 -14 5 -2 16 12 16 31 1
31 -4 0 -3 -3 0 -7z"/>
<path d="M12510 14688 c36 -17 75 -31 87 -32 13 0 23 -4 23 -7 0 -3 6 -6 13
-6 6 0 21 -4 32 -8 18 -7 19 -7 4 9 -9 10 -31 18 -49 18 -31 1 -32 2 -14 16
20 15 15 15 -31 -4 -10 -4 -15 -2 -13 7 2 10 -6 13 -27 12 -25 -2 -27 -1 -10
6 19 9 18 10 -5 11 -14 1 -36 3 -50 5 -14 2 4 -10 40 -27z"/>
<path d="M14405 14709 c-4 -6 -5 -12 -2 -15 2 -3 7 2 10 11 7 17 1 20 -8 4z"/>
<path d="M12696 14631 c-4 -6 -2 -12 3 -12 26 -3 30 -4 37 -11 11 -12 21 -10
27 6 4 10 -1 12 -16 9 -18 -4 -19 -3 -7 6 13 9 13 11 -2 11 -10 0 -18 -6 -18
-12 0 -10 -3 -9 -9 1 -6 9 -11 10 -15 2z"/>
<path d="M6000 14619 c0 -5 5 -7 10 -4 6 3 10 8 10 11 0 2 -4 4 -10 4 -5 0
-10 -5 -10 -11z"/>
<path d="M12847 14586 c-4 -10 -1 -13 8 -9 8 3 12 9 9 14 -7 12 -11 11 -17 -5z"/>
<path d="M12941 14550 c7 -5 16 -7 20 -4 4 2 10 0 14 -6 3 -5 11 -10 16 -10 6
0 7 5 4 10 -8 12 7 13 21 1 14 -13 76 -32 69 -21 -4 6 -13 10 -21 10 -8 0 -14
4 -14 8 0 9 -2 10 -74 16 -28 2 -43 0 -35 -4z"/>
<path d="M11050 14147 l0 -394 103 -64 c287 -179 699 -476 884 -638 308 -270
489 -617 518 -993 l7 -87 40 32 c62 51 195 214 254 312 47 80 141 284 132 289
-2 1 -28 13 -58 26 -91 40 -235 127 -232 140 1 6 -2 9 -8 5 -14 -9 -119 75
-113 91 2 7 12 10 21 7 12 -3 13 -2 5 4 -7 5 -24 45 -38 88 -15 44 -31 94 -37
110 -13 38 -37 136 -48 195 -4 25 -15 71 -23 103 -8 32 -12 67 -10 78 3 10 0
26 -7 34 -6 8 -13 24 -15 37 -2 13 -8 49 -15 81 -6 33 -9 65 -7 71 4 9 -5 12
-24 11 -28 -2 -29 -1 -12 18 17 19 17 19 -7 12 -23 -6 -24 -6 -7 7 17 13 8 19
-98 77 -158 85 -335 193 -683 415 -240 153 -424 268 -509 320 -10 6 -13 -74
-13 -387z"/>
<path d="M13160 14520 c-20 -6 -21 -8 -5 -8 11 0 29 3 40 8 25 11 -1 11 -35 0z"/>
<path d="M13194 14498 c-4 -7 -4 -10 0 -6 5 4 20 2 35 -3 24 -9 25 -8 7 6 -24
18 -33 19 -42 3z"/>
<path d="M13290 14479 c14 -6 38 -8 55 -6 16 2 38 -1 49 -7 14 -8 20 -8 23 1
3 9 12 9 29 2 34 -12 77 -12 69 1 -4 6 -18 10 -33 11 -15 0 -70 2 -122 4 -72
4 -89 2 -70 -6z"/>
<path d="M13580 14464 c0 -8 15 -11 40 -10 56 3 60 13 6 18 -30 2 -46 -1 -46
-8z"/>
<path d="M13538 14463 c7 -3 16 -2 19 1 4 3 -2 6 -13 5 -11 0 -14 -3 -6 -6z"/>
<path d="M6030 14350 c13 -9 13 -11 0 -20 -12 -7 -10 -9 7 -7 17 1 20 5 12 19
-5 10 -15 18 -22 18 -8 0 -6 -4 3 -10z"/>
<path d="M6305 13090 c-3 -5 -1 -10 4 -10 6 0 11 5 11 10 0 6 -2 10 -4 10 -3
0 -8 -4 -11 -10z"/>
<path d="M9485 12710 c3 -5 13 -10 21 -10 8 0 14 5 14 10 0 6 -9 10 -21 10
-11 0 -17 -4 -14 -10z"/>
<path d="M9730 12551 c0 -5 7 -11 15 -15 9 -3 15 0 15 9 0 8 -7 15 -15 15 -8
0 -15 -4 -15 -9z"/>
<path d="M9985 12390 c3 -5 8 -10 11 -10 2 0 4 5 4 10 0 6 -5 10 -11 10 -5 0
-7 -4 -4 -10z"/>
<path d="M12400 10425 c0 -16 9 -19 34 -9 20 8 11 24 -15 24 -10 0 -19 -7 -19
-15z"/>
<path d="M13938 9293 c12 -2 32 -2 45 0 12 2 2 4 -23 4 -25 0 -35 -2 -22 -4z"/>
<path d="M14178 9213 c12 -2 32 -2 45 0 12 2 2 4 -23 4 -25 0 -35 -2 -22 -4z"/>
<path d="M19858 9133 c12 -2 32 -2 45 0 12 2 2 4 -23 4 -25 0 -35 -2 -22 -4z"/>
<path d="M15938 8813 c12 -2 32 -2 45 0 12 2 2 4 -23 4 -25 0 -35 -2 -22 -4z"/>
<path d="M18338 8813 c12 -2 32 -2 45 0 12 2 2 4 -23 4 -25 0 -35 -2 -22 -4z"/>
<path d="M17098 8733 c34 -2 90 -2 125 0 34 2 6 3 -63 3 -69 0 -97 -1 -62 -3z"/>
<path d="M10107 6265 c-26 -507 -274 -1284 -660 -2062 -36 -72 -63 -134 -59
-137 3 -3 1 -6 -5 -6 -6 0 -14 -8 -17 -17 -6 -15 -5 -15 13 1 11 10 19 21 18
25 -1 3 16 24 38 45 22 21 31 32 20 25 -18 -13 -19 -12 -8 2 7 9 9 20 5 24 -4
5 -1 5 6 1 15 -9 55 22 46 36 -3 4 0 7 8 6 7 -2 12 3 10 10 -1 6 1 11 6 10 12
-4 317 304 314 316 -2 6 0 8 4 4 8 -9 80 52 76 65 -1 5 1 6 6 3 5 -3 21 8 36
23 20 21 24 30 14 35 -7 3 -4 4 7 3 12 -1 19 3 17 11 -1 8 2 11 7 8 9 -6 49
23 106 78 17 15 24 25 16 21 -28 -15 1 16 31 35 17 10 35 28 42 40 6 13 22 30
36 39 23 15 24 15 17 -4 -7 -20 -7 -20 8 -1 12 16 12 22 2 34 -10 13 -9 14 11
3 12 -6 22 -8 21 -4 -5 27 3 44 19 41 9 -2 16 2 15 9 -2 7 4 10 13 6 11 -4 14
0 10 20 -4 21 -1 25 12 20 9 -3 24 -11 32 -17 10 -7 9 -4 -2 10 -19 22 -7 47
17 38 7 -3 16 -1 20 5 3 6 1 11 -4 11 -21 0 -11 19 12 22 12 2 22 8 22 14 0
15 147 164 163 164 6 0 12 5 12 10 0 6 36 45 81 88 44 42 131 126 192 186 62
59 121 112 132 117 15 7 13 8 -12 5 -18 -2 -35 0 -39 5 -3 5 -16 9 -29 9 -38
0 -244 55 -330 89 -132 51 -231 115 -326 210 -97 98 -150 190 -179 313 l-17
72 -6 -119z m77 -1403 c3 -5 -1 -9 -9 -9 -8 0 -12 4 -9 9 3 4 7 8 9 8 2 0 6
-4 9 -8z m-554 -536 c0 -2 -8 -10 -17 -17 -16 -13 -17 -12 -4 4 13 16 21 21
21 13z m-147 -141 c-3 -9 -8 -14 -10 -11 -3 3 -2 9 2 15 9 16 15 13 8 -4z"/>
</g>
</svg>
